<?xml version="1.0" encoding="utf-8"?>
<?xml-stylesheet type="text/xsl" href="rss1.xsl"?>
<rss version="2.0" xmlns:atom="http://www.w3.org/2005/Atom" xmlns:content="http://purl.org/rss/1.0/modules/content/" xmlns:dc="http://purl.org/dc/elements/1.1/" xmlns:media="http://search.yahoo.com/mrss/">
<channel>
 <title>Getty</title>
 <link>http://www.gettyimg.com/</link>
 <atom:link href="http://www.gettyimg.com/" rel="self" type="application/rss+xml" />

 
                <item>
                <title><![CDATA[【Documentaries】Britney Spears: The Making of Circus (Album &amp; Single)  Japan DVD Exclusive (AI Upscaled)]]></title>
                <link><![CDATA[https://sharemania.us/threads/britney-spears-the-making-of-circus-album-single-japan-dvd-exclusive-ai-upscaled.232841/]]></link>
                <description><![CDATA[<article>
<blockquote class="messageText SelectQuoteContainer ugc baseHtml">
<img src="https://i.ibb.co/B4PTkKr/BS-The-Making-of-Circus-The-Album-mp4-thumbs-2023-11-26-18-21-16.jpg" class="bbCodeImage LbImage" alt="[​IMG]" data-url="https://i.ibb.co/B4PTkKr/BS-The-Making-of-Circus-The-Album-mp4-thumbs-2023-11-26-18-21-16.jpg" style=""> <br>
<img src="https://i.ibb.co/4Wcjmp5/BS-The-Making-of-Circus-Single-mp4-thumbs-2023-11-26-18-21-38.jpg" class="bbCodeImage LbImage" alt="[​IMG]" data-url="https://i.ibb.co/4Wcjmp5/BS-The-Making-of-Circus-Single-mp4-thumbs-2023-11-26-18-21-38.jpg" style=""> <br>
<br>
Both videos upscaled by 400%<br>
Source: DVD VOB<br>
<br>
<br>
<div class="bbCodeBlock bbCodeVfcHH HiddenContent">
<div class="attribution type">Hidden Content:</div>
<blockquote>You must reply before you can see the hidden data contained here.</blockquote>
</div>
<div class="messageTextEndMarker">&nbsp;</div>
</blockquote>
</article>]]></description>
                <author><![CDATA[anqhzmdn]]></author>
                </item>

                
                <item>
                <title><![CDATA[【HD Live Performances】HDTV - Jack Harlow - Thanksgiving Halftime Show HDTV 1080p BLAP (23rd Nov. 2023)]]></title>
                <link><![CDATA[https://sharemania.us/threads/jack-harlow-thanksgiving-halftime-show-hdtv-1080p-blap-23rd-nov-2023.232842/]]></link>
                <description><![CDATA[<article>
<blockquote class="messageText SelectQuoteContainer ugc baseHtml">
<img src="https://i.imgur.com/X2S7dpl.jpg" class="bbCodeImage LbImage" alt="[​IMG]" data-url="https://i.imgur.com/X2S7dpl.jpg" style=""> <br>
<br>
<img src="https://i.imgur.com/JPGRIRe.jpg" class="bbCodeImage LbImage" alt="[​IMG]" data-url="https://i.imgur.com/JPGRIRe.jpg" style=""> <br>
<br>
<div class="bbCodeBlock bbCodeCode">
<div class="type">Code:</div>
<pre>General
Complete name                            : NFL.2023.W12.Green.Bay.Packers.at.Detroit.Lions.23-11-2023.HDTV.1080p.h264.mkv
Format                                   : Matroska
Format version                           : Version 4
File size                                : 222 MiB
Duration                                 : 5 min 57 s
Overall bit rate                         : 5 199 kb/s
Frame rate                               : 30.000 FPS
Encoded date                             : 2023-11-26 10:10:27 UTC
Writing application                      : mkvmerge v77.0 ('Elemental') 64-bit
Writing library                          : libebml v1.4.4 + libmatroska v1.7.1 / Lavf58.76.100

Video
ID                                       : 1
Format                                   : AVC
Format/Info                              : Advanced Video Codec
Format profile                           : High@L4
Format settings                          : CABAC / 3 Ref Frames
Format settings, CABAC                   : Yes
Format settings, Reference frames        : 3 frames
Codec ID                                 : V_MPEG4/ISO/AVC
Duration                                 : 5 min 57 s
Bit rate mode                            : Constant
Bit rate                                 : 5 000 kb/s
Width                                    : 1 920 pixels
Height                                   : 1 080 pixels
Display aspect ratio                     : 16:9
Frame rate mode                          : Constant
Frame rate                               : 30.000 FPS
Color space                              : YUV
Chroma subsampling                       : 4:2:0
Bit depth                                : 8 bits
Scan type                                : Progressive
Bits/(Pixel*Frame)                       : 0.080
Stream size                              : 213 MiB (96%)
Default                                  : Yes
Forced                                   : No

Audio
ID                                       : 2
Format                                   : AAC LC
Format/Info                              : Advanced Audio Codec Low Complexity
Codec ID                                 : A_AAC-2
Duration                                 : 5 min 57 s
Bit rate                                 : 192 kb/s
Channel(s)                               : 2 channels
Channel layout                           : L R
Sampling rate                            : 44.1 kHz
Frame rate                               : 43.066 FPS (1024 SPF)
Compression mode                         : Lossy
Delay relative to video                  : 21 ms
Stream size                              : 8.22 MiB (4%)
Default                                  : Yes
Forced                                   : No</pre>
</div>
<div class="bbCodeBlock bbCodeVfcHH HiddenContent">
<div class="attribution type">Hidden Content:</div>
<blockquote>You must reply before you can see the hidden data contained here.</blockquote>
</div><br>
Source: BLAP
<div class="messageTextEndMarker">&nbsp;</div>
</blockquote>
</article>]]></description>
                <author><![CDATA[murayan_k]]></author>
                </item>

                </channel></rss>